<?xml version="1.0" encoding="UTF-8" standalone="no"?>
<svg
   version="1.1"
   viewBox="0 0 256 256"
   id="svg11"
   sodipodi:docname="icon.svg"
   inkscape:version="1.3 (0e150ed6c4, 2023-07-21)"
   inkscape:export-filename="..\..\..\Projects\Chad POV\godot.png"
   inkscape:export-xdpi="208.27118"
   inkscape:export-ydpi="208.27118"
   width="256"
   height="256"
   xmlns:inkscape="http://www.inkscape.org/namespaces/inkscape"
   xmlns:sodipodi="http://sodipodi.sourceforge.net/DTD/sodipodi-0.dtd"
   xmlns="http://www.w3.org/2000/svg"
   xmlns:svg="http://www.w3.org/2000/svg">
  <defs
     id="defs11" />
  <sodipodi:namedview
     id="namedview11"
     pagecolor="#505050"
     bordercolor="#ffffff"
     borderopacity="1"
     inkscape:showpageshadow="0"
     inkscape:pageopacity="0"
     inkscape:pagecheckerboard="1"
     inkscape:deskcolor="#505050"
     inkscape:zoom="2.4567428"
     inkscape:cx="100.3361"
     inkscape:cy="110.51218"
     inkscape:window-width="1920"
     inkscape:window-height="1009"
     inkscape:window-x="-8"
     inkscape:window-y="-8"
     inkscape:window-maximized="1"
     inkscape:current-layer="svg11" />
  <path
     fill="#3e89d7"
     d="m 181.69565,71.411994 12.25003,9.53218 q 0.68931,0.531753 1.43771,0.07878 l 16.14956,-9.49279 q 1.14228,-0.669616 1.96946,0.374197 l 16.56314,21.408011 q 0.82717,1.0832 0.0591,2.2058 l -11.56073,16.760098 a 2.6193798,2.5799907 63 0 0 -0.47267,1.49679 v 16.22833 q 0,1.06351 -0.96503,1.53618 -17.98116,8.86256 -16.60254,29.60096 0.0788,1.14229 -1.04381,1.33923 -7.97631,1.41801 -15.49964,3.84045 c -5.59326,1.8119 -4.86456,11.93492 -5.33723,16.62223 q -0.0985,0.96503 -1.06351,1.12259 l -21.97916,3.66319 a 1.7134289,1.7134289 0 0 1 -1.96945,-1.41801 c -0.59084,-3.78136 -0.68931,-10.65477 -3.52533,-13.23476 a 2.8360203,2.8163257 65.9 0 0 -1.89068,-0.7287 h -36.39561 a 5.5144839,5.5144839 0 0 0 -5.47509,4.84487 l -1.18168,9.51248 q -0.15755,1.28015 -1.41801,1.06351 L 81.115407,184.1635 q -1.319538,-0.21664 -1.437705,-1.57556 L 78.653583,170.3379 a 4.9630355,4.9827301 3.7 0 0 -3.879833,-4.43128 l -15.145136,-3.40716 q -1.043813,-0.21664 -1.004424,-1.28015 C 58.939304,149.89492 53.64146,135.8133 41.883793,131.99255 q -1.043813,-0.33481 -1.043813,-1.43771 v -16.66162 q 0,-0.96503 -0.551449,-1.77251 L 29.023229,95.833282 a 2.3633502,2.3436556 46.4 0 1 0.05908,-2.77694 l 16.09048,-21.250456 q 0.886256,-1.142286 2.146709,-0.433281 l 16.326812,9.217066 q 0.886256,0.492365 1.674039,-0.118167 l 11.560722,-8.783785 q 0.709005,-0.551449 0.649921,-1.4574 l -1.89068,-26.252882 a 1.5164831,1.5164831 0 0 1 0.905951,-1.496788 q 16.681313,-7.227913 34.347357,-11.541027 1.10289,-0.25603 1.61495,0.748394 l 11.40317,22.136714 q 0.43328,0.846867 1.39831,0.846867 h 7.87784 q 0.98473,0 1.4574,-0.866562 L 146.18631,32.21977 q 0.78779,-1.496789 2.42244,-1.102897 17.33123,3.998001 33.42171,11.501638 1.04381,0.47267 0.94534,1.595261 l -1.89068,25.799907 q -0.0788,0.866562 0.61053,1.398315 z m -79.62521,60.994136 a 17.843294,17.843294 0 0 0 -17.843289,-17.84329 17.843294,17.843294 0 0 0 -17.843294,17.84329 17.843294,17.843294 0 0 0 17.843294,17.8433 17.843294,17.843294 0 0 0 17.843289,-17.8433 z m 90.35876,0.0591 a 17.744821,17.744821 0 0 0 -17.74482,-17.74482 17.744821,17.744821 0 0 0 -17.74482,17.74482 17.744821,17.744821 0 0 0 17.74482,17.74482 17.744821,17.744821 0 0 0 17.74482,-17.74482 z m -55.74474,10.86432 a 6.8340211,6.8340211 0 0 0 -6.8222,-6.84584 l -0.82717,-0.002 a 6.8340211,6.8340211 0 0 0 -6.84584,6.82221 l -0.0213,12.17125 a 6.8340211,6.8340211 0 0 0 6.8222,6.84584 l 0.82718,0.002 a 6.8340211,6.8340211 0 0 0 6.84583,-6.82221 z"
     id="path9"
     style="stroke-width:1.96946" />
  <circle
     fill="#f0fbff"
     cx="84.22715"
     cy="132.40614"
     r="17.843294"
     id="circle9"
     style="stroke-width:1.96946" />
  <circle
     fill="#f0fbff"
     cx="174.68439"
     cy="132.46523"
     r="17.744822"
     id="circle10"
     style="stroke-width:1.96946" />
  <rect
     fill="#f0fbff"
     x="122.43929"
     y="136.25677"
     transform="rotate(0.1)"
     width="14.495215"
     height="25.839296"
     rx="6.8340211"
     id="rect10"
     style="display:inline;stroke-width:1.96946" />
  <path
     fill="#3e89d7"
     d="m 208.67723,169.09714 c -1.91037,-8.50806 -0.63022,-24.95303 9.67004,-28.02539 17.54788,-5.23876 24.22434,36.84857 1.1029,41.8116 q -0.94534,0.21665 -1.18168,1.14229 c -6.12501,23.98801 -28.93134,33.93377 -51.34378,38.2075 -35.273,6.69615 -115.449654,8.38989 -126.281676,-38.9362 q -0.236335,-1.06351 -1.339232,-1.04381 c -15.440555,0.43328 -16.425284,-23.53503 -12.171253,-32.94904 4.076779,-9.03982 14.061933,-12.86057 19.950614,-3.01327 q 6.361351,10.69416 2.954188,23.37747 -0.275724,0.98473 0.7287,1.18167 l 16.484368,3.50564 q 1.043813,0.23633 1.142286,1.28015 l 1.102896,12.01369 q 0.47267,4.90396 5.337233,5.65235 l 34.524606,5.31754 a 5.0221192,5.0418138 8.2 0 0 5.77051,-4.33281 l 1.39832,-10.61538 q 0.11816,-0.98473 1.10289,-0.98473 h 23.18053 q 1.02412,0 1.18168,1.00442 c 0.92564,5.59326 0.39389,16.42529 9.15798,14.94819 q 16.0117,-2.71785 33.73682,-5.51448 a 5.4357055,5.3963163 87.9 0 0 4.52976,-4.90395 l 1.0832,-12.76209 q 0.0591,-0.82718 0.86656,-1.00443 l 16.26773,-3.72227 q 1.33923,-0.29542 1.04381,-1.63466 z m -173.288908,1.69335 a 9.4534009,4.4509763 89.5 0 0 4.368259,-9.49181 9.4534009,4.4509763 89.5 0 0 -4.5333,-9.41421 9.4534009,4.4509763 89.5 0 0 -4.368259,9.49181 9.4534009,4.4509763 89.5 0 0 4.5333,9.41421 z m 189.070968,-0.0392 a 9.4337063,4.4706708 89.6 0 0 4.40469,-9.46462 9.4337063,4.4706708 89.6 0 0 -4.53625,-9.4024 9.4337063,4.4706708 89.6 0 0 -4.40469,9.46463 9.4337063,4.4706708 89.6 0 0 4.53625,9.40239 z"
     id="path10"
     style="stroke-width:1.96946" />
  <ellipse
     fill="#f0fbff"
     cx="161.63947"
     cy="-33.896557"
     transform="rotate(89.5)"
     rx="9.4534016"
     ry="4.4509764"
     id="ellipse10"
     style="stroke-width:1.96946" />
  <ellipse
     fill="#f0fbff"
     cx="162.88045"
     cy="-223.26189"
     transform="rotate(89.6)"
     rx="9.4337063"
     ry="4.4706707"
     id="ellipse11"
     style="stroke-width:1.96946" />
  <g
     stroke-width="2"
     fill="none"
     stroke-linecap="butt"
     id="g7"
     style="display:none">
    <path
       stroke="#97c2eb"
       vector-effect="non-scaling-stroke"
       d="m 85.96,28.54 0.96,-13.1 Q 86.97,14.87 86.44,14.63 78.27,10.82 69.47,8.79 68.64,8.59 68.24,9.35 l -5.86,10.96 q -0.24,0.44 -0.74,0.44 h -4 q -0.49,0 -0.71,-0.43 L 51.14,9.08 Q 50.88,8.57 50.32,8.7 41.35,10.89 32.88,14.56 a 0.77,0.77 0 0 0 -0.46,0.76 l 0.96,13.33 q 0.03,0.46 -0.33,0.74 l -5.87,4.46 q -0.4,0.31 -0.85,0.06 L 18.04,29.23 Q 17.4,28.87 16.95,29.45 L 8.78,40.24 a 1.2,1.19 46.4 0 0 -0.03,1.41 l 5.72,8.27 q 0.28,0.41 0.28,0.9 v 8.46 q 0,0.56 0.53,0.73 c 5.97,1.94 8.66,9.09 8.5,14.84 q -0.02,0.54 0.51,0.65 l 7.69,1.73 a 2.53,2.52 -86.3 0 1 1.97,2.25 l 0.52,6.22 q 0.06,0.69 0.73,0.8 l 11.49,1.83 q 0.64,0.11 0.72,-0.54 l 0.6,-4.83 a 2.8,2.8 0 0 1 2.78,-2.46 h 18.48 a 1.44,1.43 65.9 0 1 0.96,0.37 c 1.44,1.31 1.49,4.8 1.79,6.72 a 0.87,0.87 0 0 0 1,0.72 l 11.16,-1.86 q 0.49,-0.08 0.54,-0.57 c 0.24,-2.38 -0.13,-7.52 2.71,-8.44 q 3.82,-1.23 7.87,-1.95 0.57,-0.1 0.53,-0.68 -0.7,-10.53 8.43,-15.03 0.49,-0.24 0.49,-0.78 V 50.76 A 1.33,1.31 63 0 1 104.99,50 l 5.87,-8.51 q 0.39,-0.57 -0.03,-1.12 L 102.42,29.5 q -0.42,-0.53 -1,-0.19 l -8.2,4.82 q -0.38,0.23 -0.73,-0.04 l -6.22,-4.84 q -0.35,-0.27 -0.31,-0.71"
       id="path1" />
    <path
       stroke="#97c2eb"
       vector-effect="non-scaling-stroke"
       d="m 99.44,79.68 -8.26,1.89 q -0.41,0.09 -0.44,0.51 l -0.55,6.48 a 2.76,2.74 87.9 0 1 -2.3,2.49 q -9,1.42 -17.13,2.8 C 66.31,94.6 66.58,89.1 66.11,86.26 q -0.08,-0.51 -0.6,-0.51 H 53.74 q -0.5,0 -0.56,0.5 l -0.71,5.39 a 2.56,2.55 -81.8 0 1 -2.93,2.2 L 32.01,91.14 Q 29.54,90.76 29.3,88.27 l -0.56,-6.1 q -0.05,-0.53 -0.58,-0.65 l -8.37,-1.78 q -0.51,-0.1 -0.37,-0.6 1.73,-6.44 -1.5,-11.87 c -2.99,-5 -8.06,-3.06 -10.13,1.53 -2.16,4.78 -1.66,16.95 6.18,16.73 q 0.56,-0.01 0.68,0.53 c 5.5,24.03 46.21,23.17 64.12,19.77 11.38,-2.17 22.96,-7.22 26.07,-19.4 q 0.12,-0.47 0.6,-0.58 c 11.74,-2.52 8.35,-23.89 -0.56,-21.23 -5.23,1.56 -5.88,9.91 -4.91,14.23 q 0.15,0.68 -0.53,0.83"
       id="path2" />
    <path
       stroke="#97c2eb"
       vector-effect="non-scaling-stroke"
       d="m 45.84,60.22 a 9.06,9.06 0 0 0 -9.06,-9.06 9.06,9.06 0 0 0 -9.06,9.06 9.06,9.06 0 0 0 9.06,9.06 9.06,9.06 0 0 0 9.06,-9.06"
       id="path3" />
    <path
       stroke="#97c2eb"
       vector-effect="non-scaling-stroke"
       d="m 91.72,60.25 a 9.01,9.01 0 0 0 -9.01,-9.01 9.01,9.01 0 0 0 -9.01,9.01 9.01,9.01 0 0 0 9.01,9.01 9.01,9.01 0 0 0 9.01,-9.01"
       id="path4" />
    <path
       stroke="#97c2eb"
       vector-effect="non-scaling-stroke"
       d="m 63.4154,65.7664 a 3.47,3.47 0 0 0 -3.464,-3.476 l -0.42,-8e-4 a 3.47,3.47 0 0 0 -3.476,3.464 l -0.0108,6.18 a 3.47,3.47 0 0 0 3.464,3.476 l 0.42,8e-4 a 3.47,3.47 0 0 0 3.476,-3.464 l 0.0108,-6.18"
       id="path5" />
    <path
       stroke="#97c2eb"
       vector-effect="non-scaling-stroke"
       d="m 11.9819,79.7098 a 4.8,2.26 89.5 0 0 2.218,-4.8195 4.8,2.26 89.5 0 0 -2.3018,-4.7801 4.8,2.26 89.5 0 0 -2.218,4.8195 4.8,2.26 89.5 0 0 2.3018,4.7801"
       id="path6" />
    <path
       stroke="#97c2eb"
       vector-effect="non-scaling-stroke"
       d="m 107.9834,79.6899 a 4.79,2.27 89.6 0 0 2.2365,-4.8057 4.79,2.27 89.6 0 0 -2.3033,-4.7741 4.79,2.27 89.6 0 0 -2.2365,4.8057 4.79,2.27 89.6 0 0 2.3033,4.7741"
       id="path7"
       style="display:inline" />
  </g>
  <path
     fill="#f0fbff"
     d="M 0,0 H 118 V 117 H 0 Z m 85.96,28.54 0.96,-13.1 Q 86.97,14.87 86.44,14.63 78.27,10.82 69.47,8.79 68.64,8.59 68.24,9.35 l -5.86,10.96 q -0.24,0.44 -0.74,0.44 h -4 q -0.49,0 -0.71,-0.43 L 51.14,9.08 Q 50.88,8.57 50.32,8.7 41.35,10.89 32.88,14.56 a 0.77,0.77 0 0 0 -0.46,0.76 l 0.96,13.33 q 0.03,0.46 -0.33,0.74 l -5.87,4.46 q -0.4,0.31 -0.85,0.06 L 18.04,29.23 Q 17.4,28.87 16.95,29.45 L 8.78,40.24 a 1.2,1.19 46.4 0 0 -0.03,1.41 l 5.72,8.27 q 0.28,0.41 0.28,0.9 v 8.46 q 0,0.56 0.53,0.73 c 5.97,1.94 8.66,9.09 8.5,14.84 q -0.02,0.54 0.51,0.65 l 7.69,1.73 a 2.52,2.53 3.7 0 1 1.97,2.25 l 0.52,6.22 q 0.06,0.69 0.73,0.8 l 11.49,1.83 q 0.64,0.11 0.72,-0.54 l 0.6,-4.83 a 2.8,2.8 0 0 1 2.78,-2.46 h 18.48 a 1.44,1.43 65.9 0 1 0.96,0.37 c 1.44,1.31 1.49,4.8 1.79,6.72 a 0.87,0.87 0 0 0 1,0.72 l 11.16,-1.86 q 0.49,-0.08 0.54,-0.57 c 0.24,-2.38 -0.13,-7.52 2.71,-8.44 q 3.82,-1.23 7.87,-1.95 0.57,-0.1 0.53,-0.68 -0.7,-10.53 8.43,-15.03 0.49,-0.24 0.49,-0.78 V 50.76 A 1.33,1.31 63 0 1 104.99,50 l 5.87,-8.51 q 0.39,-0.57 -0.03,-1.12 L 102.42,29.5 q -0.42,-0.53 -1,-0.19 l -8.2,4.82 q -0.38,0.23 -0.73,-0.04 l -6.22,-4.84 q -0.35,-0.27 -0.31,-0.71 z m 13.48,51.14 -8.26,1.89 q -0.41,0.09 -0.44,0.51 l -0.55,6.48 a 2.76,2.74 87.9 0 1 -2.3,2.49 q -9,1.42 -17.13,2.8 C 66.31,94.6 66.58,89.1 66.11,86.26 q -0.08,-0.51 -0.6,-0.51 H 53.74 q -0.5,0 -0.56,0.5 l -0.71,5.39 a 2.55,2.56 8.2 0 1 -2.93,2.2 L 32.01,91.14 Q 29.54,90.76 29.3,88.27 l -0.56,-6.1 q -0.05,-0.53 -0.58,-0.65 l -8.37,-1.78 q -0.51,-0.1 -0.37,-0.6 1.73,-6.44 -1.5,-11.87 c -2.99,-5 -8.06,-3.06 -10.13,1.53 -2.16,4.78 -1.66,16.95 6.18,16.73 q 0.56,-0.01 0.68,0.53 c 5.5,24.03 46.21,23.17 64.12,19.77 11.38,-2.17 22.96,-7.22 26.07,-19.4 q 0.12,-0.47 0.6,-0.58 c 11.74,-2.52 8.35,-23.89 -0.56,-21.23 -5.23,1.56 -5.88,9.91 -4.91,14.23 q 0.15,0.68 -0.53,0.83 z"
     id="path8"
     style="display:none" />
</svg>
